# xmcd
#
# Track frame offsets:
#	150
#	45358
#	66555
#	103516
#	136019
#	176626
#	230779
#	260704
#	280732
#
# Disc length: 4247
#
# Revision: 1
# Processed by: cddbd v1.5.1PL0 Copyright (c) Steve Scherf et al.
# Submitted via: CDex 1.51
# Normalized: r0:TRMNUM
#
DISCID=81109509
DTITLE=Krsna Prema - Into Reality
DYEAR=1900
DGENRE=New Age
TTITLE0=Ganga Flow
TTITLE1=More Trees
TTITLE2=Monsoon
TTITLE3=Dubai
TTITLE4=Nitai
TTITLE5=Ganga Crossing
TTITLE6=Puja
TTITLE7=Samadhi
TTITLE8=Bhagirathi Express
EXTD=
EXTT0=
EXTT1=
EXTT2=
EXTT3=
EXTT4=
EXTT5=
EXTT6=
EXTT7=
EXTT8=
PLAYORDER=
